:SAMPLES-PER-SECOND 30
:FULLY-SPECIFIED
:DEGREES
17
root  79.2743 40.2709 -0.0292736 176.169 -83.1847 178.914
RightUpLeg  2.55408 -9.63124 -8.80966
RightLeg  3.44509 -1.55246 3.23301
RightFoot  0.486693 -0.304796 2.97304
RightToes  1.74622e-010 0 -3.6325e-017
Spine  2.98515 -0.573272 0.476009
Spine1  8.15368 -0.784192 0.776782
HEad  -3.33009 5.08795 -4.69067
LeftShoulder1  4.83719 -8.0812 -35.6472
LeftArm  -22.4283 16.3929 -10.547
LeftForeArm  20.5048 -25.9886 -4.48373
LeftHand  -0.244104 0.0205437 5.32207
RightShoulder  4.21383 7.79704 31.3425
RightArm  -6.66213 -7.18379 11.6827
RightForeArm  -5.32563 25.1995 5.65238
RightHand  -0.689257 0.475983 -13.7077
LeftUpLeg  4.92205 6.84917 5.86757
LeftLeg  5.48002 10.9805 -2.33596
LeftFoot  -4.92292 0.197529 -3.00872
LeftToes  -1.18267e-011 5.39559e-011 -6.19194e-012
18
root  79.2683 40.2641 0.110991 177.371 -83.4815 177.609
RightUpLeg  2.65987 -9.78942 -9.20667
RightLeg  3.52235 -1.68643 3.13387
RightFoot  0.493431 -0.321914 3.13681
RightToes  1.74622e-010 0 -3.6325e-017
Spine  2.94462 -0.610895 0.595252
Spine1  9.11519 -0.746029 0.475565
HEad  -2.88578 4.83096 -4.80411
LeftShoulder1  6.00851 -9.58462 -39.6596
LeftArm  -18.9334 16.1072 -12.4463
LeftForeArm  20.0112 -24.3625 -4.16114
LeftHand  -0.244104 0.0205437 5.32207
RightShoulder  5.14203 8.75649 35.9564
RightArm  -3.23684 -7.79304 13.3652
RightForeArm  -4.60907 22.606 5.22122
RightHand  -0.581661 0.275175 -11.9806
LeftUpLeg  4.90243 6.78165 5.48634
LeftLeg  5.62448 10.8438 -2.36255
LeftFoot  -5.00414 0.177018 -2.68074
LeftToes  -1.18267e-011 5.39559e-011 -6.19194e-012
19
root  79.2502 40.2596 0.257291 178.648 -83.7563 176.412
RightUpLeg  2.65325 -9.97709 -9.61018
RightLeg  3.47991 -1.64123 3.12873
RightFoot  0.513593 -0.343751 3.34262
RightToes  1.74622e-010 0 -3.6325e-017
Spine  2.61401 -0.711006 0.504736
Spine1  10.2463 -0.856778 0.431908
HEad  -2.55105 5.02933 -5.0661
LeftShoulder1  6.94729 -10.5545 -42.9785
LeftArm  -16.5722 15.861 -15.0423
LeftForeArm  20.3309 -22.7827 -3.82948
LeftHand  -0.244104 0.0205437 5.32207
RightShoulder  6.05836 9.63345 39.9899
RightArm  -3.1565 -8.11675 15.4883
RightForeArm  -2.08409 18.5634 5.47192
RightHand  -0.506712 0.150704 -10.6836
LeftUpLeg  4.65404 6.63232 5.04682
LeftLeg  5.87218 10.7782 -2.28118
LeftFoot  -5.12644 0.167213 -2.53052
LeftToes  -1.18267e-011 5.39559e-011 -6.19194e-012
20
root  79.2192 40.2533 0.41526 179.317 -83.7591 175.853
RightUpLeg  2.61912 -10.0645 -9.91833
RightLeg  3.324 -1.46728 3.09686
RightFoot  0.650173 -0.384439 3.69993
RightToes  1.74622e-010 0 -3.6325e-017
Spine  2.24419 -0.898489 0.0624514
Spine1  11.6016 -1.28195 1.10647
HEad  -2.67332 6.19357 -6.03049
LeftShoulder1  7.31933 -10.5485 -45.3902
LeftArm  -17.4348 16.1103 -19.0808
LeftForeArm  22.2452 -22.1919 -3.63466
LeftHand  -0.244104 0.0205437 5.32207
RightShoulder  6.7465 10.4206 42.1792
RightArm  -7.23447 -8.40434 18.8605
RightForeArm  2.71906 14.0111 6.05914
RightHand  -0.505557 0.3628 -10.2767
LeftUpLeg  4.42448 6.50433 4.66037
LeftLeg  6.15204 10.946 -2.17192
LeftFoot  -5.36329 0.159986 -2.44365
LeftToes  -1.18267e-011 5.39559e-011 -6.19194e-012
21
root  79.1661 40.2429 0.600209 179.278 -83.5932 175.945
RightUpLeg  2.64951 -10.0842 -10.1775
RightLeg  3.14545 -1.32766 3.00088
RightFoot  0.838262 -0.429748 4.07908
RightToes  1.74622e-010 0 -3.6325e-017
Spine  2.57843 -0.711986 0.0202173
Spine1  11.7543 -1.16138 1.30114
HEad  -2.63047 6.78208 -6.75537
LeftShoulder1  7.62017 -10.6596 -46.9314
LeftArm  -20.1836 17.5226 -23.4931
LeftForeArm  23.8772 -22.4026 -3.57084
LeftHand  -0.244104 0.0205437 5.32207
RightShoulder  7.13282 10.5899 44.1719
RightArm  -11.565 -10.1965 22.0595
RightForeArm  4.18449 11.3195 5.86723
RightHand  -0.573319 0.726622 -10.9686
LeftUpLeg  4.31169 6.48572 4.33479
LeftLeg  6.47368 11.2086 -2.07788
LeftFoot  -5.77448 0.145793 -2.28864
LeftToes  -1.18267e-011 5.39559e-011 -6.19194e-012
